<?xml version="1.0" encoding="UTF-8"?>
<svg width="52px" height="59px" viewBox="0 0 52 59" version="1.1" xmlns="http://www.w3.org/2000/svg" xmlns:xlink="http://www.w3.org/1999/xlink">
    <title>Triangle Copy 8</title>
    <g id="Page-1" stroke="none" stroke-width="1" fill="none" fill-rule="evenodd">
        <g id="paginator-copy" transform="translate(-102.000000, 0.222380)" fill="#13BFA1" stroke="#979797">
            <path d="M128,4.27762023 C131.157962,4.27762023 134.645388,6.3182952 138.075137,9.52993463 C142.009238,13.2138523 145.856205,18.4557338 149.029806,24.1228795 C155.150904,35.0534115 158.867225,47.634251 155.563747,53.5333185 C155.30021,54.0039198 154.98722,54.2918457 154.600861,54.3897508 C154.155156,54.5026947 153.643008,54.3780711 153.069586,54.1174406 C151.343811,53.3330438 149.150616,51.3109315 146.604957,48.9849839 C141.423685,44.250898 134.847398,38.3139758 127.928017,38.1851662 C120.863404,38.053653 114.166523,44.1872942 108.962776,49.0169461 C106.517836,51.2861211 104.418446,53.252189 102.771762,54.0299939 C102.22927,54.2862378 101.745954,54.4149021 101.325742,54.31574 C100.96686,54.2310508 100.678713,53.9662824 100.436253,53.5333185 C96.9345264,47.2802353 100.440785,35.0683308 106.412027,24.4053997 C109.616707,18.6827572 113.55738,13.3887883 117.590519,9.6561075 C121.143673,6.36765475 124.760403,4.27762023 128,4.27762023 Z" id="Triangle-Copy-8" transform="translate(127.918711, 29.353790) rotate(-90.000000) translate(-127.918711, -29.353790) "></path>
        </g>
    </g>
</svg>