<?xml version="1.0" encoding="UTF-8"?>
<svg width="52px" height="59px" viewBox="0 0 52 59" version="1.1" xmlns="http://www.w3.org/2000/svg" xmlns:xlink="http://www.w3.org/1999/xlink">
    <title>Triangle Copy 6</title>
    <g id="Page-1" stroke="none" stroke-width="1" fill="none" fill-rule="evenodd">
        <g id="paginator-copy" transform="translate(-33.000000, -6.000000)" fill="#03E5BE" stroke="#979797">
            <path d="M59,10.5 C62.1579621,10.5 65.6453878,12.540675 69.075137,15.7523144 C73.0092379,19.4362321 76.8562048,24.6781136 80.0298064,30.3452593 C86.1509043,41.2757913 89.8672248,53.8566307 86.563747,59.7556983 C86.3002103,60.2262996 85.9872196,60.5142255 85.6008613,60.6121305 C85.1551558,60.7250745 84.6430076,60.6004509 84.0695862,60.3398203 C82.3438106,59.5554236 80.150616,57.5333112 77.6049572,55.2073637 C72.4236851,50.4732778 65.847398,44.5363556 58.9280169,44.407546 C51.8634041,44.2760328 45.1665232,50.409674 39.9627762,55.2393259 C37.5178355,57.5085008 35.4184463,59.4745688 33.7717619,60.2523737 C33.22927,60.5086175 32.7459537,60.6372818 32.3257418,60.5381198 C31.9668601,60.4534306 31.6787128,60.1886622 31.436253,59.7556983 C27.9345264,53.5026151 31.4407854,41.2907105 37.4120268,30.6277795 C40.6167066,24.905137 44.5573798,19.611168 48.5905191,15.8784873 C52.1436727,12.5900345 55.7604035,10.5 59,10.5 Z" id="Triangle-Copy-6" transform="translate(58.918711, 35.576170) rotate(-90.000000) translate(-58.918711, -35.576170) "></path>
        </g>
    </g>
</svg>